<?xml version="1.0" encoding="UTF-8" standalone="no"?>
<!DOCTYPE svg PUBLIC "-//W3C//DTD SVG 1.1//EN" "http://www.w3.org/Graphics/SVG/1.1/DTD/svg11.dtd">
<svg xmlns="http://www.w3.org/2000/svg" version="1.1" viewBox="0 0 33 33">
    <g>
        <path fill="#839496" d="M16.5,0C7.4,0,0,7.4,0,16.5C0,25.6,7.4,33,16.5,33C25.6,33,33,25.6,33,16.5C33,7.4,25.6,0,16.5,0z M16.5,32 C7.9,32,1,25.1,1,16.5C1,7.9,7.9,1,16.5,1C25.1,1,32,7.9,32,16.5C32,25.1,25.1,32,16.5,32z"/>
        <path fill="#839496" d="M10,8C9.3,8,8.7,8.2,8.2,8.6C7.8,9,7.5,9.4,7.5,10s0.2,1,0.7,1.4c0.4,0.4,1,0.6,1.8,0.6l0,0 c0.7,0,1.3-0.2,1.8-0.6s0.7-0.9,0.7-1.4c0-0.6-0.2-1.1-0.7-1.4C11.3,8.2,10.7,8,10,8z"/>
        <rect fill="#839496" x="8" y="14" width="4" height="12"/>
        <path fill="#839496" d="M24.8,15.1c-0.8-0.9-1.9-1.4-3.2-1.4c-1,0-1.8,0.3-2.4,0.7c-0.6,0.4-0.8,0.6-1.2,1.2V14h-4v12h4 c0,0,0-6.8,0-7.3c0-0.9,0.8-1.7,1.8-1.7c1.4,0,2.2,0.7,2.2,2.4V26h4v-6.7l0,0C26,17.5,25.6,16,24.8,15.1z"/>
    </g>
</svg>
